<svg width="9" height="9" viewBox="0 0 9 9" fill="none" xmlns="http://www.w3.org/2000/svg">
<path d="M9.00019 0V3.31341C9.00019 3.57517 8.78796 3.78736 8.52625 3.78736C8.26453 3.78736 8.0523 3.57517 8.0523 3.31341V1.63786L4.60082 5.08935C4.41574 5.27444 4.11565 5.27444 3.93056 5.08935C3.74548 4.90426 3.74548 4.60418 3.93056 4.41909L7.40177 0.947886H5.68678C5.42502 0.947886 5.21283 0.735693 5.21283 0.473943C5.21283 0.212184 5.42502 0 5.68678 0H9.00019Z" fill="#3B88F7"/>
<path d="M1.42183 0.479004C0.636572 0.479004 0 1.11559 0 1.90083V7.58815C0 8.37338 0.636572 9.00998 1.42183 9.00998H7.10915C7.89438 9.00998 8.53098 8.37338 8.53098 7.58815V5.21844C8.53098 4.95669 8.31875 4.74449 8.05703 4.74449C7.79532 4.74449 7.58309 4.95669 7.58309 5.21844V7.58815C7.58309 7.84986 7.37086 8.06209 7.10915 8.06209H1.42183C1.16008 8.06209 0.947886 7.84986 0.947886 7.58815V1.90083C0.947886 1.63908 1.16008 1.42689 1.42183 1.42689H3.79155C4.05329 1.42689 4.26549 1.2147 4.26549 0.952947C4.26549 0.691198 4.05329 0.479004 3.79155 0.479004H1.42183Z" fill="#3B88F7"/>
</svg>
